<svg width="23" height="23" viewBox="0 0 23 23" fill="none" xmlns="http://www.w3.org/2000/svg">
<path d="M19.2051 19.9767C17.2555 19.9767 15.3294 19.5518 13.4267 18.7022C11.5239 17.8525 9.79277 16.6475 8.23315 15.0873C6.67353 13.527 5.46888 11.7959 4.6192 9.89375C3.76953 7.99164 3.34437 6.06552 3.34375 4.11537C3.34375 3.83464 3.43733 3.6007 3.62448 3.41354C3.81163 3.22639 4.04558 3.13281 4.32631 3.13281H8.11618C8.33452 3.13281 8.52948 3.20705 8.70103 3.35553C8.87259 3.504 8.97397 3.6793 9.00516 3.88143L9.61341 7.15662C9.6446 7.40616 9.6368 7.61671 9.59001 7.78827C9.54323 7.95983 9.45745 8.10799 9.33268 8.23276L7.06344 10.5254C7.37536 11.1025 7.74561 11.6599 8.17419 12.1976C8.60278 12.7354 9.07472 13.2541 9.59001 13.7538C10.0735 14.2373 10.5804 14.6858 11.1106 15.0994C11.6409 15.5131 12.2024 15.8911 12.795 16.2336L14.9941 14.0345C15.1345 13.8942 15.3179 13.789 15.5443 13.7192C15.7708 13.6493 15.9929 13.6297 16.2106 13.6602L19.439 14.3153C19.6573 14.3776 19.8367 14.4909 19.9771 14.6549C20.1174 14.819 20.1876 15.0021 20.1876 15.2042V18.9941C20.1876 19.2748 20.094 19.5088 19.9069 19.6959C19.7197 19.8831 19.4858 19.9767 19.2051 19.9767Z" fill="black"/>
</svg>
