<svg width="24" height="24" viewBox="0 0 24 24" fill="none" xmlns="http://www.w3.org/2000/svg">
<path d="M13.4522 12.0121C13.4466 12.3085 13.353 12.5966 13.1834 12.8398C13.0139 13.0831 12.7759 13.2705 12.4997 13.3783C12.2235 13.4861 11.9216 13.5095 11.6321 13.4455C11.3426 13.3815 11.0786 13.233 10.8736 13.0188C10.6686 12.8046 10.5318 12.5343 10.4805 12.2423C10.4293 11.9503 10.4659 11.6496 10.5858 11.3784C10.7056 11.1072 10.9032 10.8777 11.1537 10.719C11.4041 10.5602 11.696 10.4794 11.9924 10.4868C12.3863 10.5014 12.759 10.6688 13.0315 10.9535C13.304 11.2383 13.4549 11.618 13.4522 12.0121Z" fill="black"/>
<path d="M14.5301 7.32422H9.45357C8.95125 7.32422 8.4695 7.52376 8.11431 7.87896C7.75912 8.23415 7.55957 8.7159 7.55957 9.21822V14.4089C7.55957 14.6577 7.60856 14.9039 7.70374 15.1337C7.79892 15.3635 7.93844 15.5723 8.11431 15.7482C8.29018 15.9241 8.49898 16.0636 8.72877 16.1588C8.95856 16.2539 9.20485 16.3029 9.45357 16.3029H14.5301C14.7788 16.3029 15.0251 16.2539 15.2549 16.1588C15.4847 16.0636 15.6935 15.9241 15.8694 15.7482C16.0453 15.5723 16.1848 15.3635 16.2799 15.1337C16.3751 14.9039 16.4241 14.6577 16.4241 14.4089V9.22758C16.4251 8.97813 16.3769 8.73095 16.2821 8.50019C16.1874 8.26943 16.0481 8.05963 15.8721 7.88281C15.6962 7.706 15.4871 7.56564 15.2568 7.46978C15.0265 7.37393 14.7796 7.32446 14.5301 7.32422ZM11.9914 14.5512C11.4888 14.5625 10.9943 14.4239 10.5709 14.1529C10.1475 13.882 9.81446 13.491 9.61423 13.0299C9.414 12.5689 9.3557 12.0586 9.44675 11.5642C9.53781 11.0699 9.77409 10.6139 10.1255 10.2544C10.4768 9.89494 10.9273 9.6483 11.4195 9.54599C11.9116 9.44368 12.4231 9.49032 12.8886 9.67997C13.3541 9.86962 13.7526 10.1937 14.0331 10.6108C14.3137 11.0279 14.4636 11.5191 14.4637 12.0218C14.4675 12.3502 14.4066 12.6762 14.2844 12.9811C14.1622 13.286 13.9812 13.5638 13.7516 13.7987C13.522 14.0336 13.2484 14.2209 12.9463 14.3501C12.6443 14.4792 12.3198 14.5475 11.9914 14.5512ZM14.7388 9.49333C14.6771 9.49335 14.6159 9.48104 14.559 9.45713C14.5021 9.43322 14.4505 9.39819 14.4072 9.3541C14.364 9.31 14.33 9.25773 14.3073 9.20033C14.2845 9.14293 14.2734 9.08157 14.2747 9.01983C14.2747 8.89425 14.3245 8.77382 14.4133 8.68502C14.5021 8.59622 14.6226 8.54633 14.7482 8.54633C14.8737 8.54633 14.9942 8.59622 15.083 8.68502C15.1718 8.77382 15.2217 8.89425 15.2217 9.01983C15.2235 9.08668 15.2109 9.15314 15.1847 9.21467C15.1585 9.27619 15.1193 9.33132 15.0698 9.37629C15.0203 9.42125 14.9617 9.45499 14.8979 9.47519C14.8342 9.4954 14.7668 9.50158 14.7004 9.49333H14.7388Z" fill="black"/>
<path d="M11.9954 2.4259C9.51361 2.41349 7.12851 3.38749 5.36483 5.13362C3.60115 6.87976 2.60335 9.25499 2.59094 11.7368C2.57853 14.2186 3.55253 16.6037 5.29866 18.3674C7.04479 20.1311 9.42003 21.1289 11.9018 21.1413C13.1307 21.1474 14.3488 20.9115 15.4864 20.4469C16.6241 19.9823 17.6592 19.2982 18.5324 18.4336C19.4057 17.569 20.1002 16.5408 20.5761 15.4079C21.0521 14.2749 21.3002 13.0593 21.3063 11.8304C21.3125 10.6015 21.0765 9.38347 20.6119 8.24579C20.1473 7.10811 19.4632 6.07308 18.5986 5.19979C17.734 4.3265 16.7059 3.63206 15.5729 3.15612C14.4399 2.68017 13.2243 2.43204 11.9954 2.4259ZM17.6784 14.312C17.681 14.7319 17.6002 15.148 17.4408 15.5364C17.2814 15.9248 17.0464 16.2777 16.7496 16.5746C16.4528 16.8715 16.1 17.1065 15.7117 17.266C15.3233 17.4256 14.9072 17.5064 14.4874 17.504H9.50534C9.0856 17.5063 8.66955 17.4254 8.28128 17.2659C7.89302 17.1064 7.54025 16.8714 7.2434 16.5747C6.94654 16.2779 6.7115 15.9252 6.55187 15.537C6.39224 15.1488 6.3112 14.7327 6.31343 14.313V9.33001C6.31082 8.91019 6.39157 8.49403 6.551 8.10566C6.71042 7.71728 6.94536 7.36441 7.24218 7.06751C7.53899 6.7706 7.89179 6.53557 8.28012 6.37603C8.66845 6.21649 9.08459 6.13561 9.50441 6.1381H14.4874C14.9071 6.13561 15.3232 6.21646 15.7114 6.37594C16.0997 6.53542 16.4525 6.77037 16.7493 7.06718C17.0461 7.36398 17.281 7.71674 17.4405 8.10501C17.6 8.49328 17.6808 8.90934 17.6784 9.32907V14.312Z" fill="black"/>
</svg>
