<svg width="20" height="17" viewBox="0 0 20 17" fill="none" xmlns="http://www.w3.org/2000/svg">
<path d="M18.3891 16.3727H1.61121C1.18389 16.3727 0.774071 16.203 0.471911 15.9008C0.169752 15.5987 0 15.1889 0 14.7615L0 1.61121C0 1.18389 0.169752 0.774071 0.471911 0.471911C0.774071 0.169752 1.18389 0 1.61121 0L18.3891 0C18.8164 0 19.2262 0.169752 19.5284 0.471911C19.8306 0.774071 20.0003 1.18389 20.0003 1.61121V14.7615C20.0003 15.1889 19.8306 15.5987 19.5284 15.9008C19.2262 16.203 18.8164 16.3727 18.3891 16.3727ZM1.61121 1.2563C1.51708 1.2563 1.42681 1.29369 1.36025 1.36025C1.29369 1.42681 1.2563 1.51708 1.2563 1.61121V14.7615C1.2563 14.8081 1.26548 14.8543 1.28332 14.8974C1.30115 14.9404 1.32729 14.9795 1.36025 15.0125C1.39321 15.0454 1.43233 15.0716 1.47539 15.0894C1.51845 15.1073 1.5646 15.1164 1.61121 15.1164H18.3891C18.4827 15.1156 18.5722 15.0779 18.638 15.0114C18.7039 14.9449 18.7409 14.8551 18.7409 14.7615V1.61121C18.7409 1.51762 18.7039 1.42782 18.638 1.36135C18.5722 1.29489 18.4827 1.25713 18.3891 1.2563H1.61121Z" fill="black"/>
<path d="M3.7942 13.6494H16.2033C16.3027 13.6523 16.4009 13.6271 16.4867 13.5769C16.5724 13.5266 16.6424 13.4533 16.6885 13.3653C16.7347 13.2772 16.7552 13.178 16.7477 13.0788C16.7402 12.9797 16.705 12.8847 16.6462 12.8046L14.9345 10.4804C14.8898 10.4186 14.8323 10.3671 14.7659 10.3295C14.6995 10.2919 14.6258 10.269 14.5498 10.2624C14.4738 10.2559 14.3973 10.2658 14.3255 10.2915C14.2536 10.3172 14.1882 10.358 14.1336 10.4113L12.3747 12.0853L8.29176 6.5419C8.24093 6.47265 8.17404 6.41677 8.09685 6.37906C8.01966 6.34135 7.93448 6.32294 7.8486 6.32541C7.76273 6.32789 7.67874 6.35116 7.60385 6.39325C7.52896 6.43533 7.4654 6.49497 7.41863 6.56703L3.33565 12.8297C3.283 12.9108 3.25348 13.0047 3.25029 13.1013C3.2471 13.1979 3.27036 13.2936 3.31755 13.3779C3.36475 13.4623 3.43409 13.5322 3.51809 13.58C3.60209 13.6279 3.69756 13.6519 3.7942 13.6494Z" fill="black"/>
<path d="M13.8605 6.61165C14.8891 6.61165 15.723 5.7778 15.723 4.74919C15.723 3.72057 14.8891 2.88672 13.8605 2.88672C12.8319 2.88672 11.998 3.72057 11.998 4.74919C11.998 5.7778 12.8319 6.61165 13.8605 6.61165Z" fill="black"/>
</svg>
