<svg width="21" height="27" viewBox="0 0 21 27" fill="none" xmlns="http://www.w3.org/2000/svg">
<path d="M10.2426 4.93642C8.88295 4.93642 7.72725 5.4123 6.77549 6.36405C5.82374 7.31581 5.34786 8.47151 5.34786 9.83116C5.34786 11.1908 5.82374 12.3465 6.77549 13.2983C7.72725 14.25 8.88295 14.7259 10.2426 14.7259C11.6022 14.7259 12.7579 14.25 13.7097 13.2983C14.6615 12.3465 15.1373 11.1908 15.1373 9.83116C15.1373 8.47151 14.6615 7.31581 13.7097 6.36405C12.7579 5.4123 11.6022 4.93642 10.2426 4.93642ZM10.2426 13.0943C9.35883 13.0943 8.59402 12.7714 7.94819 12.1256C7.30236 11.4797 6.97944 10.7149 6.97944 9.83116C6.97944 8.94739 7.30236 8.18258 7.94819 7.53675C8.59402 6.89092 9.35883 6.568 10.2426 6.568C11.1264 6.568 11.8912 6.89092 12.537 7.53675C13.1828 8.18258 13.5058 8.94739 13.5058 9.83116C13.5058 10.7149 13.1828 11.4797 12.537 12.1256C11.8912 12.7714 11.1264 13.0943 10.2426 13.0943ZM10.2426 0.0416842C8.47505 0.0416842 6.84348 0.48357 5.34786 1.36734C3.85225 2.25111 2.66255 3.44081 1.77878 4.93642C0.895011 6.43203 0.453125 8.06361 0.453125 9.83116C0.453125 10.9189 0.58909 11.8876 0.86102 12.7374C1.13295 13.5532 1.65981 14.5729 2.44161 15.7966C2.98547 16.6464 4.10718 18.295 5.80674 20.7423L9.22286 25.6371C9.4608 25.977 9.80071 26.1469 10.2426 26.1469C10.6845 26.1469 11.0244 25.977 11.2623 25.6371L14.6785 20.7423C16.378 18.295 17.4997 16.6464 18.0436 15.7966C18.8254 14.5729 19.3522 13.5532 19.6242 12.7374C19.8961 11.8876 20.0321 10.9189 20.0321 9.83116C20.0321 8.06361 19.5902 6.43203 18.7064 4.93642C17.8226 3.44081 16.6329 2.25111 15.1373 1.36734C13.6417 0.48357 12.0101 0.0416842 10.2426 0.0416842ZM10.2426 24.2094C9.42681 23.0198 8.37308 21.5071 7.08141 19.6716C5.44984 17.3262 4.37911 15.7796 3.86924 15.0318C3.15543 13.8761 2.67955 12.9584 2.44161 12.2785C2.20367 11.5647 2.0847 10.7489 2.0847 9.83116C2.0847 8.74344 2.28865 7.70671 2.69655 6.72096C3.10444 5.73521 3.69929 4.85144 4.48109 4.06964C5.26288 3.28785 6.14666 2.693 7.1324 2.28511C8.11815 1.87721 9.15488 1.67326 10.2426 1.67326C11.3303 1.67326 12.3671 1.87721 13.3528 2.28511C14.3385 2.693 15.2223 3.28785 16.0041 4.06964C16.7859 4.85144 17.3808 5.73521 17.7887 6.72096C18.1965 7.70671 18.4005 8.74344 18.4005 9.83116C18.4005 10.7489 18.2815 11.5647 18.0436 12.2785C17.8056 12.9584 17.3298 13.8761 16.616 15.0318C16.1061 15.7796 15.0354 17.3262 13.4038 19.6716L10.2426 24.2094Z" fill="#0F001A"/>
</svg>
