<svg width="17" height="20" viewBox="0 0 17 20" fill="none" xmlns="http://www.w3.org/2000/svg">
<path d="M14.5265 14.4284L13.4157 15.527C12.5972 16.3299 11.5348 17.363 10.2285 18.6263C9.83586 19.0059 9.31108 19.2181 8.76494 19.2181C8.2188 19.2181 7.69402 19.0059 7.3014 18.6263L4.03462 15.4484C3.62351 15.0454 3.27977 14.7054 3.0034 14.4284C1.86398 13.2889 1.08804 11.8371 0.773705 10.2566C0.45937 8.67612 0.620757 7.03791 1.23746 5.54914C1.85416 4.06036 2.89848 2.78789 4.23835 1.89263C5.57823 0.997374 7.15349 0.519531 8.76494 0.519531C10.3764 0.519531 11.9516 0.997374 13.2915 1.89263C14.6314 2.78789 15.6757 4.06036 16.2924 5.54914C16.9091 7.03791 17.0705 8.67612 16.7562 10.2566C16.4418 11.8371 15.6659 13.2889 14.5265 14.4284ZM11.1044 8.9242C11.1044 8.30375 10.8579 7.70871 10.4192 7.26998C9.98044 6.83125 9.38539 6.58478 8.76494 6.58478C8.14449 6.58478 7.54944 6.83125 7.11072 7.26998C6.67199 7.70871 6.42552 8.30375 6.42552 8.9242C6.42552 9.54466 6.67199 10.1397 7.11072 10.5784C7.54944 11.0172 8.14449 11.2636 8.76494 11.2636C9.38539 11.2636 9.98044 11.0172 10.4192 10.5784C10.8579 10.1397 11.1044 9.54466 11.1044 8.9242Z" fill="black"/>
</svg>
