<svg width="23" height="24" viewBox="0 0 23 24" fill="none" xmlns="http://www.w3.org/2000/svg">
<path d="M21.1217 7.60547V16.4625C21.1217 17.1786 20.8481 17.8676 20.3569 18.3886C19.8656 18.9096 19.1939 19.2232 18.479 19.2652L18.3143 19.2698H5.21356C4.4975 19.2699 3.80849 18.9963 3.2875 18.5051C2.76652 18.0138 2.45294 17.3421 2.41093 16.6272L2.40625 16.4625V7.60547L11.2446 13.498L11.3531 13.5598C11.4811 13.6223 11.6216 13.6548 11.764 13.6548C11.9063 13.6548 12.0468 13.6223 12.1748 13.5598L12.2833 13.498L21.1217 7.60547Z" fill="black"/>
<path d="M18.3159 4.29688C19.3265 4.29688 20.2127 4.83026 20.7068 5.63222L11.7655 11.5931L2.82422 5.63222C3.0589 5.2512 3.38127 4.9318 3.76445 4.70065C4.14764 4.4695 4.58052 4.33331 5.02702 4.30343L5.21511 4.29688H18.3159Z" fill="black"/>
</svg>
