<svg width="27" height="20" viewBox="0 0 27 20" fill="none" xmlns="http://www.w3.org/2000/svg">
<path d="M24.111 0.242342L2.90049 0.242342C2.22067 0.242342 1.64282 0.480281 1.16694 0.956158C0.691064 1.43203 0.453125 2.00989 0.453125 2.68971L0.453125 17.3739C0.453125 18.0537 0.691064 18.6316 1.16694 19.1075C1.64282 19.5834 2.22067 19.8213 2.90049 19.8213L24.111 19.8213C24.7908 19.8213 25.3687 19.5834 25.8446 19.1075C26.3204 18.6316 26.5584 18.0537 26.5584 17.3739V2.68971C26.5584 2.00989 26.3204 1.43203 25.8446 0.956158C25.3687 0.480281 24.7908 0.242342 24.111 0.242342ZM2.90049 1.87392L24.111 1.87392C24.349 1.87392 24.5359 1.9589 24.6719 2.12886C24.8418 2.26482 24.9268 2.45177 24.9268 2.68971V4.78017C23.7371 5.79991 21.1708 7.87337 17.2278 11.0006L16.7179 11.4085C16.0381 11.9863 15.5112 12.3942 15.1373 12.6321C14.4915 13.074 13.9476 13.295 13.5058 13.295C13.0639 13.295 12.52 13.074 11.8742 12.6321C11.4663 12.3942 10.9224 11.9863 10.2426 11.4085L9.78372 11.0006C5.84073 7.87337 3.2744 5.79991 2.0847 4.78017L2.0847 2.68971C2.0847 2.45177 2.15269 2.26482 2.28865 2.12886C2.45861 1.9589 2.66255 1.87392 2.90049 1.87392ZM24.111 18.1897L2.90049 18.1897C2.66255 18.1897 2.45861 18.1217 2.28865 17.9858C2.15269 17.8158 2.0847 17.6119 2.0847 17.3739L2.0847 6.92162C3.2744 7.87337 5.50082 9.65791 8.76398 12.2752L9.27385 12.6831C10.0556 13.363 10.7015 13.8558 11.2113 14.1617C12.0611 14.6716 12.8259 14.9266 13.5058 14.9266C14.1856 14.9266 14.9504 14.6716 15.8002 14.1617C16.276 13.8558 16.9219 13.363 17.7377 12.6831L18.2475 12.2752C21.5107 9.65791 23.7371 7.87337 24.9268 6.92162V17.3739C24.9268 17.6119 24.8418 17.8158 24.6719 17.9858C24.5359 18.1217 24.349 18.1897 24.111 18.1897Z" fill="#0F001A"/>
</svg>
