<svg width="27" height="27" viewBox="0 0 27 27" fill="none" xmlns="http://www.w3.org/2000/svg">
<path d="M25.177 25.4392L26.3497 20.2895C26.4517 19.9156 26.4007 19.5587 26.1968 19.2188C26.0268 18.8789 25.7719 18.624 25.4319 18.454L19.9254 16.1086C19.5855 15.9726 19.2455 15.9386 18.9056 16.0066C18.5657 16.1086 18.2768 16.2956 18.0389 16.5675L15.7954 19.3208C14.0279 18.437 12.4473 17.2983 11.0537 15.9047C9.66002 14.511 8.52131 12.9304 7.63754 11.1629L10.3908 8.91946C10.6628 8.68152 10.8327 8.3926 10.9007 8.05268C11.0027 7.71277 10.9857 7.37286 10.8497 7.03295L8.50432 1.52637C8.33436 1.18645 8.07943 0.914525 7.73951 0.710578C7.3996 0.540622 7.04269 0.50663 6.66879 0.608604L1.51912 1.7813C1.17921 1.88328 0.890282 2.07023 0.652344 2.34216C0.414405 2.64808 0.295436 2.98799 0.295436 3.36189C0.295436 7.57681 1.34916 11.4858 3.45662 15.0889C5.53008 18.624 8.31737 21.4112 11.8185 23.4507C15.4555 25.5922 19.3985 26.6629 23.6474 26.6629C23.9873 26.6629 24.2932 26.5439 24.5652 26.306C24.8711 26.068 25.075 25.7791 25.177 25.4392ZM1.92701 3.36189L7.0257 2.1892L9.37109 7.69577L5.64905 10.704C6.87274 13.3553 8.28337 15.4798 9.88096 17.0774C11.4785 18.6749 13.603 20.0856 16.2543 21.3093L19.2625 17.5872L24.7691 19.9326L23.5964 25.0313C19.6874 25.0313 16.0504 24.0456 12.6852 22.0741C9.38809 20.1366 6.78776 17.5362 4.88425 14.2731C2.91276 10.9079 1.92701 7.27088 1.92701 3.36189Z" fill="#0F001A"/>
</svg>
