<svg width="50" height="49" viewBox="0 0 50 49" fill="none" xmlns="http://www.w3.org/2000/svg">
<path d="M17.2654 15.5182L16.1754 21.8738C16.1181 22.1722 16.1464 22.4808 16.257 22.7637C16.3675 23.0466 16.5559 23.2921 16.8 23.4716C17.0401 23.6522 17.3257 23.7617 17.6245 23.7878C17.9233 23.814 18.2234 23.7557 18.491 23.6195L24.3829 20.6607L29.9685 23.584C30.2351 23.7284 30.5368 23.7945 30.8391 23.7748C31.1414 23.7551 31.432 23.6504 31.6779 23.4727C31.9237 23.2949 32.1148 23.0512 32.2293 22.7695C32.3437 22.4879 32.377 22.1795 32.3252 21.8797L31.2352 15.5478L35.8191 11.0445C36.0346 10.8343 36.1872 10.5676 36.2596 10.2748C36.3319 9.98197 36.3212 9.67464 36.2286 9.38762C36.136 9.10059 35.9652 8.84535 35.7356 8.6508C35.506 8.45625 35.2268 8.33017 34.9295 8.28683L28.5367 7.35184L25.685 1.57618C25.5499 1.3072 25.3425 1.08153 25.0864 0.924673C24.8303 0.767816 24.5356 0.686023 24.2356 0.688533C23.9366 0.687128 23.6432 0.769442 23.3882 0.926237C23.1332 1.08303 22.9268 1.3081 22.7921 1.57618L19.9345 7.35184L13.5417 8.275C13.2415 8.3157 12.9589 8.44073 12.7263 8.63568C12.4937 8.83063 12.3207 9.08758 12.2271 9.37696C12.1335 9.66634 12.1232 9.97637 12.1974 10.2714C12.2715 10.5664 12.4271 10.8344 12.6462 11.0445L17.2654 15.5182ZM20.6415 9.0443C20.7802 9.02102 20.9113 8.96485 21.0241 8.88046C21.1368 8.79606 21.2278 8.68587 21.2896 8.55905L24.2356 2.64137L27.1816 8.55905C27.2451 8.68808 27.3388 8.79968 27.4548 8.88421C27.5708 8.96875 27.7055 9.02369 27.8474 9.0443L34.3756 9.99112L29.6621 14.5714C29.5584 14.6715 29.4805 14.7955 29.4354 14.9327C29.3902 15.0698 29.379 15.216 29.4028 15.3585L30.5164 21.8383L24.8071 18.8499C24.6822 18.7855 24.5439 18.7519 24.4035 18.7519C24.2632 18.7519 24.1248 18.7855 23.9999 18.8499L17.9902 21.8797L19.1096 15.3703C19.1293 15.2282 19.1143 15.0835 19.0661 14.9485C19.0179 14.8135 18.9378 14.6922 18.8327 14.5951L14.1192 10.0148L20.6415 9.0443Z" fill="black"/>
<path d="M48.9818 27.0226C48.6859 26.6792 48.3253 26.3979 47.9209 26.1948C47.5165 25.9917 47.0761 25.8708 46.625 25.839C46.1741 25.8079 45.7215 25.8683 45.2943 26.0168C44.8671 26.1652 44.474 26.3986 44.1386 26.703L35.9783 34.0646C35.9571 33.901 35.9256 33.7389 35.884 33.5793C35.7469 33.0666 35.5012 32.5896 35.1635 32.1811C34.8259 31.7726 34.4045 31.4421 33.9279 31.2123C32.4137 30.5732 30.3103 30.869 28.2776 31.1649C27.0887 31.3987 25.8743 31.4743 24.6658 31.3898C24.128 31.2543 23.6079 31.0556 23.1162 30.798C21.5725 30.1057 19.4573 29.1588 15.5215 30.0287C13.4895 30.5559 11.623 31.5899 10.0951 33.0349V30.869C10.0951 30.6336 10.0019 30.4078 9.8362 30.2414C9.67046 30.0749 9.44567 29.9814 9.21127 29.9814H1.55176C1.31736 29.9814 1.09257 30.0749 0.926825 30.2414C0.761082 30.4078 0.667969 30.6336 0.667969 30.869V48.0303C0.667969 48.2657 0.761082 48.4915 0.926825 48.658C1.09257 48.8244 1.31736 48.918 1.55176 48.918H9.21127C9.44567 48.918 9.67046 48.8244 9.8362 48.658C10.0019 48.4915 10.0951 48.2657 10.0951 48.0303V46.7994C11.2734 47.0776 16.6233 48.3262 20.5768 48.3262C24.7012 48.3262 29.7447 47.3794 32.8497 46.0242C38.5708 43.5329 47.992 32.7805 48.7579 31.9106C49.4215 31.2855 49.8162 30.425 49.858 29.5122C49.8998 28.5994 49.5855 27.7062 48.9818 27.0226ZM8.32748 47.1427H2.43555V31.7567H8.32748V47.1427ZM47.5324 30.6264L47.4499 30.7093C47.3498 30.8217 37.6163 42.018 32.1309 44.4028C29.2438 45.6632 24.4832 46.5509 20.5768 46.5509C16.4525 46.5509 10.3661 45.036 10.3072 45.0241C10.2367 45.0155 10.1655 45.0155 10.0951 45.0241V35.5558C10.7373 34.8161 13.0057 32.4136 15.9045 31.7744C19.2747 31.0347 20.9362 31.7744 22.3856 32.4313C23.0109 32.7407 23.6719 32.9712 24.3535 33.1178C25.745 33.2496 27.1482 33.1778 28.5191 32.9047C30.2337 32.668 32.178 32.3958 33.2327 32.8396C33.4594 32.9705 33.6577 33.1459 33.8156 33.3553C33.9735 33.5648 34.0878 33.804 34.1518 34.0587C34.2374 34.408 34.2388 34.7728 34.1558 35.1227C34.0727 35.4727 33.9078 35.7976 33.6746 36.0707C32.3312 37.8815 24.1591 40.5918 20.8066 40.3255C20.5722 40.3074 20.3403 40.3837 20.1618 40.5374C19.9834 40.6911 19.873 40.9097 19.855 41.1451C19.8371 41.3805 19.913 41.6135 20.066 41.7927C20.219 41.9719 20.4367 42.0827 20.6711 42.1008C20.8537 42.1008 21.0541 42.1008 21.2603 42.1008C24.9192 42.1008 31.907 39.9349 34.4641 37.7691L34.5289 37.7335L45.2758 28.0286C45.5987 27.7396 46.0223 27.5907 46.4542 27.6143C46.6802 27.6281 46.9011 27.6876 47.1036 27.7893C47.3061 27.891 47.486 28.0328 47.6326 28.2061C47.9351 28.5421 48.0942 28.9841 48.0755 29.4368C48.0567 29.8895 47.8617 30.3167 47.5324 30.6264Z" fill="black"/>
</svg>
