<svg width="38" height="49" viewBox="0 0 38 49" fill="none" xmlns="http://www.w3.org/2000/svg">
<path d="M37.1888 18.2929L34.0475 14.8623L35.0304 10.3383C35.1216 9.93707 34.8784 9.53583 34.4832 9.40543L30.0348 7.98103L28.606 3.57741C28.4743 3.1862 28.0689 2.95549 27.6636 3.03574L23.0936 4.00875L19.628 0.899128C19.324 0.618259 18.8478 0.618259 18.5438 0.899128L15.0783 4.00875L10.5082 3.03574C10.1029 2.94546 9.69755 3.1862 9.56582 3.57741L8.12692 7.98103L3.66833 9.40543C3.27314 9.53583 3.04009 9.93707 3.12115 10.3383L4.10406 14.8623L0.962796 18.2929C0.679068 18.5939 0.679068 19.0653 0.962796 19.3662L4.10406 22.7969L3.12115 27.3208C3.02996 27.7221 3.27314 28.1233 3.66833 28.2537L8.11678 29.6781L8.29918 30.2499L3.00969 44.7648C2.88809 45.0858 2.98942 45.4469 3.26302 45.6576C3.52647 45.8682 3.9014 45.8983 4.19526 45.7177L9.59622 42.4476L11.633 48.376C11.7444 48.697 12.0484 48.9176 12.393 48.9176H12.4031C12.7476 48.9176 13.0516 48.707 13.1631 48.386L17.6926 35.9877L18.5438 36.75C18.6958 36.8904 18.8883 36.9607 19.091 36.9607C19.2936 36.9607 19.476 36.8904 19.6382 36.75L20.4893 35.9877L25.0189 48.386C25.1303 48.707 25.4445 48.9176 25.7789 48.9176H25.789C26.1335 48.9176 26.4375 48.697 26.549 48.376L28.5857 42.4476L33.9867 45.7177C34.2806 45.8983 34.6555 45.8682 34.9189 45.6576C35.1824 45.4469 35.2837 45.0858 35.1723 44.7648L29.8726 30.2599L30.055 29.6882L34.5035 28.2638C34.8987 28.1334 35.1317 27.7321 35.0507 27.3309L34.0678 22.8069L37.209 19.3763C37.4725 19.0653 37.4725 18.6039 37.1888 18.2929ZM12.4132 45.6977L10.7919 40.9831C10.7109 40.7524 10.5285 40.5718 10.2954 40.4816C10.0623 40.3913 9.80902 40.4214 9.59622 40.5518L5.29977 43.1498L9.0997 32.7476L9.53542 34.0818C9.66715 34.473 10.0725 34.7037 10.4778 34.6234L15.0479 33.6504L16.3652 34.8341L12.4132 45.6977ZM32.8416 43.1598L28.5452 40.5618C28.3324 40.4314 28.0791 40.4113 27.846 40.4916C27.6129 40.5718 27.4306 40.7524 27.3495 40.9931L25.7282 45.7077L21.756 34.8441L23.0733 33.6605L27.6433 34.6335C28.0487 34.7237 28.454 34.483 28.5857 34.0918L29.0215 32.7577L32.8416 43.1598ZM32.5782 22.0345C32.4059 22.2251 32.335 22.4859 32.3857 22.7367L33.2976 26.9597L29.1532 28.2838C28.91 28.3641 28.7073 28.5547 28.6263 28.8054L28.2311 30.0092L27.2887 32.9081L23.0226 32.0053C22.7693 31.9552 22.5058 32.0254 22.3133 32.1959L19.0808 35.0849L15.8484 32.1859C15.6964 32.0555 15.5038 31.9752 15.3012 31.9752C15.2404 31.9752 15.1897 31.9853 15.1289 31.9953L10.8629 32.8981L9.92048 29.9991L9.52529 28.7954C9.44423 28.5547 9.2517 28.354 8.99837 28.2738L4.86404 26.9597L5.77603 22.7367C5.82669 22.4859 5.75576 22.2251 5.5835 22.0345L2.66516 18.8346L5.59363 15.6347C5.76589 15.4441 5.83683 15.1833 5.78616 14.9325L4.87418 10.7095L9.01863 9.38537C9.26183 9.30512 9.46449 9.11454 9.54556 8.86376L10.873 4.76107L15.1391 5.66387C15.3924 5.71402 15.6558 5.6438 15.8484 5.47328L19.0808 2.58434L22.3133 5.48331C22.5058 5.65383 22.7693 5.72405 23.0226 5.6739L27.2887 4.7711L28.6263 8.8738C28.7073 9.11454 28.8999 9.31515 29.1532 9.3954L33.2976 10.7195L32.3857 14.9426C32.335 15.1933 32.4059 15.4541 32.5782 15.6447L35.4965 18.8346L32.5782 22.0345Z" fill="black"/>
<path d="M19.0816 7.19824C12.3735 7.19824 6.92188 12.5949 6.92188 19.2355C6.92188 25.876 12.3735 31.2727 19.0816 31.2727C25.7898 31.2727 31.2414 25.876 31.2414 19.2355C31.2414 12.5949 25.7898 7.19824 19.0816 7.19824ZM19.0816 29.6677C13.2754 29.6677 8.54318 24.9833 8.54318 19.2355C8.54318 13.4877 13.2754 8.80321 19.0816 8.80321C24.8879 8.80321 29.6201 13.4877 29.6201 19.2355C29.6201 24.9833 24.8879 29.6677 19.0816 29.6677Z" fill="black"/>
<path d="M23.6084 13.277L16.6469 20.0981L14.5494 18.0417C13.9211 17.4299 12.8976 17.4299 12.2593 18.0417L10.9724 19.2956C10.6684 19.5966 10.4961 19.9978 10.4961 20.4291C10.4961 20.8605 10.6684 21.2617 10.9724 21.5626L15.5019 25.9963C15.816 26.3073 16.2315 26.4578 16.6469 26.4578C17.0624 26.4578 17.4778 26.3073 17.792 25.9963L27.1854 16.8079C27.4894 16.507 27.6616 16.1058 27.6616 15.6744C27.6616 15.2431 27.4894 14.8418 27.1854 14.5409L25.8985 13.287C25.2702 12.6651 24.2366 12.6651 23.6084 13.277ZM18.5114 23.0372L16.6469 24.8528L12.1275 20.4291L13.4144 19.1853L16.0795 21.7934C16.3936 22.1043 16.9002 22.1043 17.2144 21.7934L24.7534 14.4205L24.186 13.8488L26.0403 15.6644L18.5114 23.0372Z" fill="black"/>
</svg>
