<svg width="46" height="49" viewBox="0 0 46 49" fill="none" xmlns="http://www.w3.org/2000/svg">
<path d="M44.8693 12.4286L23.5056 0.78605C23.3867 0.721982 23.2541 0.688477 23.1194 0.688477C22.9847 0.688477 22.8521 0.721982 22.7332 0.78605L1.36949 12.4286C1.23675 12.4982 1.12529 12.6032 1.0471 12.7321C0.968911 12.8611 0.926964 13.0092 0.925781 13.1604V36.4456C0.926176 36.596 0.96689 36.7436 1.04358 36.8725C1.12027 37.0013 1.23007 37.1067 1.36127 37.1774L22.725 48.82C22.8439 48.8841 22.9765 48.9176 23.1112 48.9176C23.2459 48.9176 23.3785 48.8841 23.4974 48.82L44.8611 37.1774C44.9923 37.1067 45.1021 37.0013 45.1788 36.8725C45.2555 36.7436 45.2962 36.596 45.2966 36.4456V13.1604C45.297 13.0108 45.2575 12.8639 45.1823 12.7352C45.1071 12.6063 44.999 12.5005 44.8693 12.4286ZM23.1112 2.46591L42.7494 13.1604L36.9976 16.2956L18.0414 5.22686L23.1112 2.46591ZM3.473 13.1604L9.66026 9.83399L28.6082 20.8612L23.1112 23.855L3.473 13.1604ZM16.3405 6.14995L35.2967 17.2187L30.3091 19.9381L11.3611 8.861L16.3405 6.14995ZM31.402 21.2271L35.8719 18.7988V25.0026L34.1464 23.2729C34.0505 23.1765 33.9327 23.1055 33.8032 23.0662C33.6738 23.0269 33.5367 23.0206 33.4042 23.0477C33.2718 23.0749 33.148 23.1347 33.0438 23.2218C32.9397 23.3089 32.8583 23.4207 32.807 23.5473L31.402 26.9735V21.2271ZM2.56915 14.5492L22.2895 25.302V46.6994L2.56915 35.9466V14.5492ZM23.9329 46.6994V25.302L29.7586 22.1252V31.1565C29.7681 31.3427 29.8392 31.5204 29.9604 31.6608C30.0816 31.8012 30.2459 31.8963 30.427 31.9309C30.6081 31.9654 30.7953 31.9374 30.9587 31.8512C31.1221 31.765 31.2522 31.6259 31.328 31.4559L33.8424 25.3103L36.0938 27.5723C36.2087 27.6896 36.3556 27.7696 36.5155 27.8021C36.6756 27.8346 36.8415 27.8181 36.9923 27.7548C37.143 27.6914 37.2717 27.5841 37.3619 27.4464C37.4521 27.3088 37.4998 27.147 37.4988 26.9818V17.9006L43.645 14.5742V35.9466L23.9329 46.6994Z" fill="black"/>
</svg>
