<svg width="50" height="49" viewBox="0 0 50 49" fill="none" xmlns="http://www.w3.org/2000/svg">
<path d="M40.2539 26.64C39.7995 26.1858 39.1834 25.9306 38.541 25.9306C37.8985 25.9306 37.2824 26.1858 36.8281 26.64L34.5434 28.9246C34.5386 28.9246 34.537 28.9351 34.5329 28.9392L33.4023 30.0641C33.0286 30.4402 32.5842 30.7388 32.0947 30.9425C31.6051 31.1461 31.0801 31.251 30.5499 31.251C30.0197 31.251 29.4947 31.1461 29.0052 30.9425C28.5156 30.7388 28.0713 30.4402 27.6975 30.0641L19.7025 22.069C19.3263 21.6952 19.0277 21.2506 18.824 20.761C18.6203 20.2713 18.5155 19.7462 18.5155 19.2159C18.5155 18.6855 18.6203 18.1604 18.824 17.6707C19.0277 17.1811 19.3263 16.7365 19.7025 16.3627L20.8282 15.232L20.8387 15.2256L23.1234 12.9417C23.3484 12.7167 23.5269 12.4497 23.6486 12.1557C23.7704 11.8617 23.8332 11.5466 23.8332 11.2284C23.8332 10.9102 23.7704 10.5951 23.6486 10.3012C23.5269 10.0072 23.3484 9.74014 23.1234 9.51515L16.2686 2.65633C15.8071 2.21564 15.1935 1.96973 14.5553 1.96973C13.9172 1.96973 13.3036 2.21564 12.842 2.65633L10.5582 4.94018L10.5525 4.94907C7.8325 7.67434 6.23751 11.3232 6.08459 15.1706C5.93168 19.0179 7.23202 22.782 9.72718 25.7145V28.5289C9.61088 28.5749 9.49863 28.6218 9.3888 28.6694L7.24547 26.5261C7.09117 26.3802 6.88687 26.2989 6.67451 26.2989C6.46215 26.2989 6.25784 26.3802 6.10355 26.5261L2.67939 29.9503C2.52799 30.1017 2.44294 30.3071 2.44294 30.5212C2.44294 30.7354 2.52799 30.9408 2.67939 31.0922L4.82272 33.2355C4.77426 33.3453 4.72823 33.4576 4.6822 33.5739H1.65133C1.43715 33.5739 1.23174 33.659 1.08028 33.8104C0.928837 33.9619 0.84375 34.1673 0.84375 34.3815V39.227C0.84375 39.4412 0.928837 39.6466 1.08028 39.798C1.23174 39.9494 1.43715 40.0346 1.65133 40.0346H4.6822C4.72823 40.1509 4.77426 40.2631 4.82272 40.3721L2.67939 42.5163C2.52799 42.6677 2.44294 42.8731 2.44294 43.0872C2.44294 43.3014 2.52799 43.5068 2.67939 43.6582L6.10355 47.0824C6.25499 47.2338 6.46037 47.3188 6.67451 47.3188C6.88865 47.3188 7.09402 47.2338 7.24547 47.0824L9.3888 44.939C9.49863 44.9867 9.61088 45.0335 9.72718 45.0795V48.1104C9.72718 48.3246 9.81229 48.53 9.96372 48.6814C10.1151 48.8329 10.3206 48.918 10.5348 48.918H15.3803C15.5944 48.918 15.7999 48.8329 15.9513 48.6814C16.1027 48.53 16.1878 48.3246 16.1878 48.1104V45.0795C16.3041 45.0335 16.4164 44.9867 16.5262 44.939L18.6696 47.0824C18.8239 47.2283 19.0281 47.3095 19.2405 47.3095C19.4529 47.3095 19.6572 47.2283 19.8115 47.0824L23.2356 43.6582C23.3871 43.5068 23.4721 43.3014 23.4721 43.0872C23.4721 42.8731 23.3871 42.6677 23.2356 42.5163L21.0923 40.3721C21.1408 40.2631 21.1868 40.1509 21.2328 40.0346H24.0465C26.9769 42.5339 30.7416 43.837 34.59 43.6841C38.4385 43.5313 42.088 41.9338 44.8111 39.21L44.8216 39.2036L47.1054 36.9189C47.3304 36.6939 47.5089 36.4268 47.6307 36.1329C47.7524 35.8389 47.8152 35.5238 47.8152 35.2056C47.8152 34.8874 47.7524 34.5723 47.6307 34.2783C47.5089 33.9844 47.3304 33.7173 47.1054 33.4923L40.2539 26.64ZM13.9856 3.79745C14.1394 3.65063 14.3439 3.56871 14.5565 3.56871C14.7692 3.56871 14.9736 3.65063 15.1275 3.79745L21.9798 10.6506C22.131 10.802 22.2159 11.0072 22.2159 11.2212C22.2159 11.4351 22.131 11.6403 21.9798 11.7917L20.2678 13.503L12.2727 5.50791L13.9856 3.79745ZM23.4561 38.4194H20.6619C20.4909 38.4194 20.3243 38.4737 20.1862 38.5744C20.048 38.6751 19.9454 38.8171 19.893 38.9799C19.7677 39.3838 19.6041 39.7748 19.4045 40.1476C19.3206 40.3007 19.2887 40.477 19.3134 40.6498C19.3382 40.8226 19.4183 40.9827 19.5417 41.1062L21.5219 43.0872L19.2405 45.3695L17.2595 43.3885C17.136 43.2648 16.9756 43.1846 16.8027 43.1599C16.6297 43.1351 16.4534 43.1672 16.3001 43.2512C15.9276 43.4514 15.5365 43.615 15.1323 43.7398C14.9697 43.7923 14.8279 43.8949 14.7273 44.0331C14.6268 44.1712 14.5726 44.3377 14.5727 44.5086V47.3028H11.3423V44.5086C11.3424 44.3377 11.2882 44.1712 11.1877 44.0331C11.0871 43.8949 10.9453 43.7923 10.7827 43.7398C10.3786 43.615 9.98746 43.4514 9.61492 43.2512C9.46164 43.1672 9.28535 43.1351 9.11236 43.1599C8.93938 43.1846 8.77907 43.2648 8.65551 43.3885L6.67451 45.3695L4.39712 43.0872L6.37732 41.1062C6.50074 40.9827 6.58083 40.8226 6.60558 40.6498C6.63033 40.477 6.59841 40.3007 6.51461 40.1476C6.31633 39.7747 6.15408 39.3837 6.03006 38.9799C5.97732 38.8158 5.87346 38.6728 5.73368 38.572C5.5939 38.4712 5.42551 38.4177 5.25316 38.4194H2.45892V35.1891H5.25316C5.42414 35.1891 5.59071 35.1348 5.72887 35.0341C5.86703 34.9334 5.96966 34.7914 6.02198 34.6286C6.146 34.2248 6.30825 33.8338 6.50653 33.4608C6.59033 33.3077 6.62226 33.1315 6.5975 32.9587C6.57275 32.7859 6.49266 32.6257 6.36924 32.5022L4.39712 30.5212L6.67451 28.239L8.65551 30.22C8.77907 30.3436 8.93938 30.4238 9.11236 30.4485C9.28535 30.4733 9.46164 30.4413 9.61492 30.3573C9.98746 30.1571 10.3786 29.9935 10.7827 29.8687C10.9453 29.8162 11.0871 29.7136 11.1877 29.5754C11.2882 29.4372 11.3424 29.2708 11.3423 29.0999V26.3056H14.5727V29.0999C14.5726 29.2708 14.6268 29.4372 14.7273 29.5754C14.8279 29.7136 14.9697 29.8162 15.1323 29.8687C15.5365 29.9935 15.9276 30.1571 16.3001 30.3573C16.4534 30.4413 16.6297 30.4733 16.8027 30.4485C16.9756 30.4238 17.136 30.3436 17.2595 30.22L19.2405 28.239L21.5219 30.5212L19.5417 32.5022C19.4183 32.6257 19.3382 32.7859 19.3134 32.9587C19.2887 33.1315 19.3206 33.3077 19.4045 33.4608C19.6041 33.8336 19.7677 34.2246 19.893 34.6286C19.9454 34.7914 20.048 34.9334 20.1862 35.0341C20.3243 35.1348 20.4909 35.1891 20.6619 35.1891H23.4561V38.4194ZM25.0713 38.7885V34.3815C25.0713 34.1673 24.9862 33.9619 24.8347 33.8104C24.6833 33.659 24.4779 33.5739 24.2637 33.5739H21.2328C21.1868 33.4576 21.1408 33.3453 21.0923 33.2355L23.2356 31.0922C23.3871 30.9408 23.4721 30.7354 23.4721 30.5212C23.4721 30.3071 23.3871 30.1017 23.2356 29.9503L19.8115 26.5261C19.6601 26.3747 19.4547 26.2896 19.2405 26.2896C19.0263 26.2896 18.821 26.3747 18.6696 26.5261L16.5262 28.6694C16.4164 28.6218 16.3041 28.5749 16.1878 28.5289V25.498C16.1878 25.2839 16.1027 25.0784 15.9513 24.927C15.7999 24.7756 15.5944 24.6905 15.3803 24.6905H10.9741C8.82276 22.1722 7.65516 18.9607 7.6869 15.6487C7.71871 12.3368 8.9477 9.14818 11.1469 6.67164L19.1234 14.6482L18.5581 15.2183C18.0315 15.7423 17.6136 16.3652 17.3284 17.0513C17.0432 17.7373 16.8964 18.473 16.8964 19.2159C16.8964 19.9587 17.0432 20.6944 17.3284 21.3804C17.6136 22.0665 18.0315 22.6893 18.5581 23.2134L26.5532 31.2085C27.0767 31.7348 27.699 32.1525 28.3844 32.4378C29.0698 32.7229 29.8047 32.8699 30.5471 32.8703C31.2894 32.8707 32.0245 32.7245 32.7102 32.44C33.3959 32.1555 34.0186 31.7383 34.5426 31.2125L35.1168 30.6424L43.0941 38.6189C40.6168 40.8184 37.4272 42.0473 34.1144 42.0785C30.8017 42.1096 27.5896 40.941 25.0713 38.7885ZM45.9635 35.777L44.2522 37.4883L36.2571 29.4932L37.9692 27.7827C38.1206 27.6313 38.326 27.5462 38.5402 27.5462C38.7543 27.5462 38.9597 27.6313 39.1111 27.7827L45.9635 34.6351C46.1149 34.7865 46.1999 34.9918 46.1999 35.206C46.1999 35.4202 46.1149 35.6256 45.9635 35.777Z" fill="black"/>
<path d="M12.952 32.7666C12.1534 32.7666 11.3727 33.0034 10.7087 33.4471C10.0446 33.8908 9.52703 34.5214 9.22144 35.2593C8.91585 35.9971 8.83581 36.809 8.99168 37.5923C9.14746 38.3756 9.53203 39.0951 10.0968 39.6597C10.6614 40.2245 11.3809 40.6091 12.1643 40.7648C12.9475 40.9207 13.7594 40.8407 14.4972 40.5351C15.2351 40.2295 15.8657 39.7119 16.3094 39.0478C16.7531 38.3838 16.9899 37.6031 16.9899 36.8045C16.9886 35.734 16.5628 34.7077 15.8058 33.9507C15.0488 33.1937 14.0225 32.7679 12.952 32.7666ZM12.952 39.2273C12.4728 39.2273 12.0044 39.0851 11.606 38.819C11.2075 38.5528 10.897 38.1743 10.7137 37.7316C10.5303 37.289 10.4823 36.8019 10.5758 36.3318C10.6693 35.8619 10.9 35.4302 11.2389 35.0914C11.5776 34.7525 12.0094 34.5218 12.4793 34.4283C12.9493 34.3348 13.4365 34.3828 13.8792 34.5662C14.3218 34.7495 14.7002 35.0601 14.9664 35.4585C15.2327 35.8569 15.3747 36.3254 15.3747 36.8045C15.3747 37.447 15.1195 38.0633 14.6651 38.5177C14.2108 38.972 13.5946 39.2273 12.952 39.2273Z" fill="black"/>
<path d="M28.4099 0.695981C28.1976 0.666851 27.9825 0.723237 27.8118 0.852725C27.6411 0.982213 27.5289 1.17421 27.4997 1.38647C27.4705 1.59872 27.5269 1.81386 27.6565 1.98455C27.7859 2.15523 27.978 2.26748 28.1902 2.29661C33.061 2.97763 37.5771 5.22733 41.0548 8.70495C44.5325 12.1827 46.7821 16.6988 47.4632 21.5696C47.4897 21.7629 47.5853 21.94 47.7323 22.0682C47.8792 22.1965 48.0677 22.2672 48.2627 22.2674C48.2994 22.2674 48.3361 22.2649 48.3725 22.2601C48.4776 22.2457 48.5789 22.2108 48.6704 22.1572C48.762 22.1037 48.8422 22.0326 48.9063 21.948C48.9705 21.8636 49.0173 21.7672 49.0442 21.6646C49.0711 21.5619 49.0775 21.455 49.063 21.3499C48.3331 16.1303 45.9223 11.2907 42.1956 7.56384C38.469 3.83704 33.6294 1.42605 28.4099 0.695981Z" fill="black"/>
<path d="M28.1601 7.20175C31.746 7.83675 35.0503 9.55828 37.6253 12.1333C40.2004 14.7085 41.9219 18.0126 42.5569 21.5986C42.5896 21.7858 42.6873 21.9555 42.8328 22.0779C42.9783 22.2001 43.1623 22.2672 43.3524 22.2672C43.3992 22.2672 43.446 22.2631 43.4921 22.2551C43.703 22.2183 43.8907 22.0991 44.0139 21.9239C44.137 21.7487 44.1855 21.5317 44.1487 21.3207C43.4566 17.4075 41.5783 13.8017 38.7684 10.9917C35.9585 8.18159 32.3527 6.30314 28.4395 5.61081C28.3351 5.59246 28.228 5.59487 28.1245 5.61789C28.021 5.64093 27.923 5.68411 27.8361 5.74501C27.7493 5.8059 27.6753 5.8833 27.6184 5.97279C27.5614 6.06228 27.5227 6.16211 27.5043 6.26657C27.486 6.37103 27.4884 6.47808 27.5115 6.58162C27.5345 6.68515 27.5777 6.78313 27.6386 6.86997C27.6995 6.95681 27.7768 7.03079 27.8663 7.08772C27.9559 7.14466 28.0557 7.18342 28.1601 7.20175Z" fill="black"/>
<path d="M28.1121 12.1347C30.4141 12.7043 32.5169 13.8915 34.1937 15.5685C35.8705 17.2454 37.0577 19.3484 37.627 21.6505C37.6491 21.7563 37.6923 21.8566 37.754 21.9455C37.8157 22.0344 37.8946 22.11 37.9861 22.1677C38.0775 22.2255 38.1796 22.2643 38.2863 22.2819C38.393 22.2994 38.5022 22.2954 38.6073 22.27C38.7125 22.2445 38.8114 22.1982 38.8983 22.1339C38.9852 22.0694 39.0583 21.9883 39.1132 21.8951C39.1681 21.8019 39.2037 21.6986 39.218 21.5914C39.2322 21.4842 39.2248 21.3751 39.1961 21.2709C38.5559 18.6805 37.2203 16.3142 35.3335 14.4273C33.4467 12.5406 31.0804 11.205 28.49 10.5647C28.386 10.5374 28.2776 10.531 28.1712 10.546C28.0647 10.561 27.9623 10.5972 27.87 10.6524C27.7777 10.7074 27.6974 10.7805 27.6336 10.8671C27.5699 10.9537 27.5242 11.0521 27.499 11.1566C27.4738 11.2612 27.4698 11.3697 27.4871 11.4758C27.5044 11.5819 27.5428 11.6835 27.5999 11.7746C27.657 11.8657 27.7317 11.9444 27.8196 12.0063C27.9076 12.0681 28.007 12.1118 28.1121 12.1347Z" fill="black"/>
<path d="M29.9139 23.0749C30.5528 23.0749 31.1774 22.8855 31.7086 22.5305C32.2399 22.1756 32.6539 21.671 32.8984 21.0808C33.1429 20.4905 33.2069 19.841 33.0822 19.2144C32.9576 18.5878 32.6499 18.0122 32.1981 17.5604C31.7463 17.1087 31.1708 16.801 30.5442 16.6764C29.9175 16.5517 29.268 16.6156 28.6778 16.8602C28.0875 17.1046 27.5829 17.5187 27.228 18.0499C26.8731 18.5811 26.6836 19.2057 26.6836 19.8446C26.6836 20.7014 27.0239 21.523 27.6298 22.1288C28.2355 22.7346 29.0572 23.0749 29.9139 23.0749ZM29.9139 18.2294C30.2334 18.2294 30.5456 18.3242 30.8112 18.5017C31.0769 18.6791 31.2839 18.9314 31.4062 19.2265C31.5284 19.5216 31.5604 19.8464 31.4981 20.1597C31.4357 20.473 31.2819 20.7608 31.056 20.9867C30.8301 21.2126 30.5423 21.3664 30.2291 21.4288C29.9157 21.491 29.591 21.459 29.2958 21.3369C29.0007 21.2146 28.7484 21.0075 28.571 20.7419C28.3935 20.4763 28.2988 20.1641 28.2988 19.8446C28.2988 19.4163 28.4689 19.0054 28.7718 18.7025C29.0748 18.3996 29.4856 18.2294 29.9139 18.2294Z" fill="black"/>
</svg>
