<svg width="23" height="24" viewBox="0 0 23 24" fill="none" xmlns="http://www.w3.org/2000/svg">
<g clip-path="url(#clip0_502_9119)">
<path d="M13.4522 11.5964L10.9301 10.4196C10.71 10.3174 10.5292 10.432 10.5292 10.6757V12.8923C10.5292 13.136 10.71 13.2505 10.9301 13.1483L13.4511 11.9715C13.6723 11.8682 13.6723 11.6998 13.4522 11.5964ZM11.6521 1.00391C5.6984 1.00391 0.87207 5.83023 0.87207 11.784C0.87207 17.7377 5.6984 22.564 11.6521 22.564C17.6059 22.564 22.4322 17.7377 22.4322 11.784C22.4322 5.83023 17.6059 1.00391 11.6521 1.00391ZM11.6521 16.1634C6.13409 16.1634 6.03752 15.6659 6.03752 11.784C6.03752 7.90203 6.13409 7.40457 11.6521 7.40457C17.1702 7.40457 17.2668 7.90203 17.2668 11.784C17.2668 15.6659 17.1702 16.1634 11.6521 16.1634Z" fill="black"/>
</g>
<defs>
<clipPath id="clip0_502_9119">
<rect width="22.4585" height="22.4585" fill="white" transform="translate(0.422852 0.554688)"/>
</clipPath>
</defs>
</svg>
